# xmcd
#
# Track frame offsets:
#	150
#	11570
#	27427
#	39634
#	52997
#	64029
#	75217
#	90251
#	101486
#	120439
#	135949
#	150188
#	166341
#
# Disc length: 2489 seconds
#
# Revision: 1
# Processed by: cddbd v1.5.2PL0 Copyright (c) Steve Scherf et al.
# Submitted via: EasyCDDAExtractor 10.0.2.1
#
DISCID=8309b70d
DTITLE=Ben and Carmen Steneker - Never Ending Love
DYEAR=2011
DGENRE=Country
TTITLE0=Never Ending Song of Love
TTITLE1=Beautiful Meath (Irish Waltz)
TTITLE2=Mariachi
TTITLE3=Flowers From The Moon
TTITLE4=Ain't No Cow In Texas
TTITLE5=Memories of You
TTITLE6=Dreaming My Dreams
TTITLE7=Power in Your Love
TTITLE8=Only The Heart May Know
TTITLE9=Better Off Without You
TTITLE10=Jealous Heart
TTITLE11=Old Fashioned Summer
TTITLE12=The Gift
EXTD=
EXTT0=
EXTT1=
EXTT2=
EXTT3=
EXTT4=
EXTT5=
EXTT6=
EXTT7=
EXTT8=
EXTT9=
EXTT10=
EXTT11=
EXTT12=
PLAYORDER=
